<mxfile host="app.diagrams.net" modified="2022-10-27T13:49:35.194Z" agent="5.0 (Windows NT 10.0; Win64; x64) AppleWebKit/537.36 (KHTML, like Gecko) Chrome/106.0.0.0 Safari/537.36 Edg/106.0.1370.52" etag="8HGqPVtxnFUG-h5ata6W" version="20.4.2" type="github">
  <diagram id="EBfeZMEyexWFrF4IKZ6d" name="第 1 页">
    <mxGraphModel dx="1038" dy="585" grid="0" gridSize="10" guides="0" tooltips="1" connect="1" arrows="1" fold="1" page="0" pageScale="1" pageWidth="827" pageHeight="1169" math="0" shadow="0">
      <root>
        <mxCell id="0" />
        <mxCell id="1" parent="0" />
        <mxCell id="4TRdkXVJR2D3k_TfeXqG-23" style="edgeStyle=orthogonalEdgeStyle;rounded=0;orthogonalLoop=1;jettySize=auto;html=1;exitX=1;exitY=0.5;exitDx=0;exitDy=0;entryX=0;entryY=0.5;entryDx=0;entryDy=0;fontSize=15;" edge="1" parent="1" source="4TRdkXVJR2D3k_TfeXqG-1" target="4TRdkXVJR2D3k_TfeXqG-12">
          <mxGeometry relative="1" as="geometry" />
        </mxCell>
        <mxCell id="4TRdkXVJR2D3k_TfeXqG-1" value="" style="rounded=0;whiteSpace=wrap;html=1;fontSize=15;" vertex="1" parent="1">
          <mxGeometry x="70" y="270" width="120" height="60" as="geometry" />
        </mxCell>
        <mxCell id="4TRdkXVJR2D3k_TfeXqG-7" value="head" style="text;html=1;align=center;verticalAlign=middle;resizable=0;points=[];autosize=1;strokeColor=none;fillColor=none;fontSize=15;" vertex="1" parent="1">
          <mxGeometry x="80" y="235" width="60" height="30" as="geometry" />
        </mxCell>
        <mxCell id="4TRdkXVJR2D3k_TfeXqG-11" value="" style="endArrow=none;html=1;rounded=0;exitX=0.5;exitY=1;exitDx=0;exitDy=0;entryX=0.5;entryY=0;entryDx=0;entryDy=0;fontSize=15;" edge="1" parent="1" source="4TRdkXVJR2D3k_TfeXqG-1" target="4TRdkXVJR2D3k_TfeXqG-1">
          <mxGeometry width="50" height="50" relative="1" as="geometry">
            <mxPoint x="85" y="320" as="sourcePoint" />
            <mxPoint x="135" y="270" as="targetPoint" />
          </mxGeometry>
        </mxCell>
        <mxCell id="4TRdkXVJR2D3k_TfeXqG-24" style="edgeStyle=orthogonalEdgeStyle;rounded=0;orthogonalLoop=1;jettySize=auto;html=1;exitX=1;exitY=0.5;exitDx=0;exitDy=0;entryX=0;entryY=0.5;entryDx=0;entryDy=0;fontSize=15;" edge="1" parent="1" source="4TRdkXVJR2D3k_TfeXqG-12" target="4TRdkXVJR2D3k_TfeXqG-19">
          <mxGeometry relative="1" as="geometry" />
        </mxCell>
        <mxCell id="4TRdkXVJR2D3k_TfeXqG-12" value="" style="rounded=0;whiteSpace=wrap;html=1;fontSize=15;" vertex="1" parent="1">
          <mxGeometry x="240" y="270" width="120" height="60" as="geometry" />
        </mxCell>
        <mxCell id="4TRdkXVJR2D3k_TfeXqG-13" value="" style="endArrow=none;html=1;rounded=0;exitX=0.5;exitY=1;exitDx=0;exitDy=0;entryX=0.5;entryY=0;entryDx=0;entryDy=0;fontSize=15;" edge="1" source="4TRdkXVJR2D3k_TfeXqG-12" target="4TRdkXVJR2D3k_TfeXqG-12" parent="1">
          <mxGeometry width="50" height="50" relative="1" as="geometry">
            <mxPoint x="95" y="330" as="sourcePoint" />
            <mxPoint x="145" y="280" as="targetPoint" />
          </mxGeometry>
        </mxCell>
        <mxCell id="4TRdkXVJR2D3k_TfeXqG-27" style="edgeStyle=orthogonalEdgeStyle;rounded=0;orthogonalLoop=1;jettySize=auto;html=1;exitX=1;exitY=0.5;exitDx=0;exitDy=0;entryX=0;entryY=0.5;entryDx=0;entryDy=0;fontSize=15;" edge="1" parent="1" source="4TRdkXVJR2D3k_TfeXqG-14" target="4TRdkXVJR2D3k_TfeXqG-16">
          <mxGeometry relative="1" as="geometry" />
        </mxCell>
        <mxCell id="4TRdkXVJR2D3k_TfeXqG-14" value="" style="rounded=0;whiteSpace=wrap;html=1;fontSize=15;" vertex="1" parent="1">
          <mxGeometry x="750" y="270" width="120" height="60" as="geometry" />
        </mxCell>
        <mxCell id="4TRdkXVJR2D3k_TfeXqG-15" value="" style="endArrow=none;html=1;rounded=0;exitX=0.5;exitY=1;exitDx=0;exitDy=0;entryX=0.5;entryY=0;entryDx=0;entryDy=0;fontSize=15;" edge="1" source="4TRdkXVJR2D3k_TfeXqG-14" target="4TRdkXVJR2D3k_TfeXqG-14" parent="1">
          <mxGeometry width="50" height="50" relative="1" as="geometry">
            <mxPoint x="765" y="320" as="sourcePoint" />
            <mxPoint x="815" y="270" as="targetPoint" />
          </mxGeometry>
        </mxCell>
        <mxCell id="4TRdkXVJR2D3k_TfeXqG-16" value="" style="rounded=0;whiteSpace=wrap;html=1;fontSize=15;" vertex="1" parent="1">
          <mxGeometry x="920" y="270" width="120" height="60" as="geometry" />
        </mxCell>
        <mxCell id="4TRdkXVJR2D3k_TfeXqG-17" value="" style="endArrow=none;html=1;rounded=0;exitX=0.5;exitY=1;exitDx=0;exitDy=0;entryX=0.5;entryY=0;entryDx=0;entryDy=0;fontSize=15;" edge="1" source="4TRdkXVJR2D3k_TfeXqG-16" target="4TRdkXVJR2D3k_TfeXqG-16" parent="1">
          <mxGeometry width="50" height="50" relative="1" as="geometry">
            <mxPoint x="775" y="330" as="sourcePoint" />
            <mxPoint x="825" y="280" as="targetPoint" />
          </mxGeometry>
        </mxCell>
        <mxCell id="4TRdkXVJR2D3k_TfeXqG-25" style="edgeStyle=orthogonalEdgeStyle;rounded=0;orthogonalLoop=1;jettySize=auto;html=1;exitX=1;exitY=0.5;exitDx=0;exitDy=0;entryX=0;entryY=0.5;entryDx=0;entryDy=0;fontSize=15;startArrow=none;" edge="1" parent="1" source="4TRdkXVJR2D3k_TfeXqG-37" target="4TRdkXVJR2D3k_TfeXqG-21">
          <mxGeometry relative="1" as="geometry" />
        </mxCell>
        <mxCell id="4TRdkXVJR2D3k_TfeXqG-19" value="" style="rounded=0;whiteSpace=wrap;html=1;fontSize=15;" vertex="1" parent="1">
          <mxGeometry x="375" y="415" width="120" height="60" as="geometry" />
        </mxCell>
        <mxCell id="4TRdkXVJR2D3k_TfeXqG-20" value="" style="endArrow=none;html=1;rounded=0;exitX=0.5;exitY=1;exitDx=0;exitDy=0;entryX=0.5;entryY=0;entryDx=0;entryDy=0;fontSize=15;" edge="1" source="4TRdkXVJR2D3k_TfeXqG-19" target="4TRdkXVJR2D3k_TfeXqG-19" parent="1">
          <mxGeometry width="50" height="50" relative="1" as="geometry">
            <mxPoint x="395" y="460" as="sourcePoint" />
            <mxPoint x="445" y="410" as="targetPoint" />
          </mxGeometry>
        </mxCell>
        <mxCell id="4TRdkXVJR2D3k_TfeXqG-26" style="edgeStyle=orthogonalEdgeStyle;rounded=0;orthogonalLoop=1;jettySize=auto;html=1;exitX=1;exitY=0.5;exitDx=0;exitDy=0;entryX=0;entryY=0.5;entryDx=0;entryDy=0;fontSize=15;" edge="1" parent="1" source="4TRdkXVJR2D3k_TfeXqG-21" target="4TRdkXVJR2D3k_TfeXqG-14">
          <mxGeometry relative="1" as="geometry" />
        </mxCell>
        <mxCell id="4TRdkXVJR2D3k_TfeXqG-21" value="" style="rounded=0;whiteSpace=wrap;html=1;fontSize=15;" vertex="1" parent="1">
          <mxGeometry x="605" y="415" width="120" height="60" as="geometry" />
        </mxCell>
        <mxCell id="4TRdkXVJR2D3k_TfeXqG-22" value="" style="endArrow=none;html=1;rounded=0;exitX=0.5;exitY=1;exitDx=0;exitDy=0;entryX=0.5;entryY=0;entryDx=0;entryDy=0;fontSize=15;" edge="1" source="4TRdkXVJR2D3k_TfeXqG-21" target="4TRdkXVJR2D3k_TfeXqG-21" parent="1">
          <mxGeometry width="50" height="50" relative="1" as="geometry">
            <mxPoint x="405" y="470" as="sourcePoint" />
            <mxPoint x="455" y="420" as="targetPoint" />
          </mxGeometry>
        </mxCell>
        <mxCell id="4TRdkXVJR2D3k_TfeXqG-28" value="tail" style="text;html=1;align=center;verticalAlign=middle;resizable=0;points=[];autosize=1;strokeColor=none;fillColor=none;fontSize=15;" vertex="1" parent="1">
          <mxGeometry x="920" y="235" width="40" height="30" as="geometry" />
        </mxCell>
        <mxCell id="4TRdkXVJR2D3k_TfeXqG-30" value="curr" style="text;html=1;align=center;verticalAlign=middle;resizable=0;points=[];autosize=1;strokeColor=none;fillColor=none;fontSize=15;" vertex="1" parent="1">
          <mxGeometry x="620" y="530" width="50" height="30" as="geometry" />
        </mxCell>
        <mxCell id="4TRdkXVJR2D3k_TfeXqG-35" value="" style="endArrow=classic;html=1;rounded=0;entryX=0.177;entryY=1.077;entryDx=0;entryDy=0;entryPerimeter=0;exitX=0.53;exitY=0.027;exitDx=0;exitDy=0;exitPerimeter=0;fontSize=15;" edge="1" parent="1">
          <mxGeometry width="50" height="50" relative="1" as="geometry">
            <mxPoint x="644.5" y="526.1899999999999" as="sourcePoint" />
            <mxPoint x="644.54" y="474.9999999999999" as="targetPoint" />
          </mxGeometry>
        </mxCell>
        <mxCell id="4TRdkXVJR2D3k_TfeXqG-36" value="" style="endArrow=classic;html=1;rounded=0;fontSize=15;entryX=0;entryY=0.25;entryDx=0;entryDy=0;" edge="1" parent="1" target="4TRdkXVJR2D3k_TfeXqG-14">
          <mxGeometry width="50" height="50" relative="1" as="geometry">
            <mxPoint x="500" y="410" as="sourcePoint" />
            <mxPoint x="550" y="360" as="targetPoint" />
          </mxGeometry>
        </mxCell>
        <mxCell id="4TRdkXVJR2D3k_TfeXqG-37" value="" style="shape=umlDestroy;whiteSpace=wrap;html=1;strokeWidth=3;fontSize=15;fillColor=none;strokeColor=#A50040;fontColor=#ffffff;" vertex="1" parent="1">
          <mxGeometry x="540" y="430" width="30" height="30" as="geometry" />
        </mxCell>
        <mxCell id="4TRdkXVJR2D3k_TfeXqG-38" value="" style="edgeStyle=orthogonalEdgeStyle;rounded=0;orthogonalLoop=1;jettySize=auto;html=1;exitX=1;exitY=0.5;exitDx=0;exitDy=0;entryX=0;entryY=0.5;entryDx=0;entryDy=0;fontSize=15;endArrow=none;" edge="1" parent="1" source="4TRdkXVJR2D3k_TfeXqG-19" target="4TRdkXVJR2D3k_TfeXqG-37">
          <mxGeometry relative="1" as="geometry">
            <mxPoint x="500" y="440" as="sourcePoint" />
            <mxPoint x="550" y="440" as="targetPoint" />
          </mxGeometry>
        </mxCell>
        <mxCell id="4TRdkXVJR2D3k_TfeXqG-39" value="pre" style="text;html=1;align=center;verticalAlign=middle;resizable=0;points=[];autosize=1;strokeColor=none;fillColor=none;fontSize=15;" vertex="1" parent="1">
          <mxGeometry x="389" y="530" width="50" height="30" as="geometry" />
        </mxCell>
        <mxCell id="4TRdkXVJR2D3k_TfeXqG-40" value="" style="endArrow=classic;html=1;rounded=0;entryX=0.177;entryY=1.077;entryDx=0;entryDy=0;entryPerimeter=0;exitX=0.53;exitY=0.027;exitDx=0;exitDy=0;exitPerimeter=0;fontSize=15;" edge="1" parent="1">
          <mxGeometry width="50" height="50" relative="1" as="geometry">
            <mxPoint x="413.5" y="526.19" as="sourcePoint" />
            <mxPoint x="413.53999999999996" y="475" as="targetPoint" />
          </mxGeometry>
        </mxCell>
      </root>
    </mxGraphModel>
  </diagram>
</mxfile>
